HIERARCHY
ROOT Hips
{
	OFFSET -0.001795 -0.223333 0.028219
	CHANNELS 6 Xposition Yposition Zposition Zrotation Yrotation Xrotation 
	JOINT LeftUpLeg
	{
		OFFSET 0.069520 -0.091406 -0.006815
		CHANNELS 3 Zrotation Yrotation Xrotation
		JOINT LeftLeg
		{
			OFFSET 0.034277 -0.375199 -0.004496
			CHANNELS 3 Zrotation Yrotation Xrotation
			JOINT LeftFoot
			{
				OFFSET -0.013596 -0.397961 -0.043693
				CHANNELS 3 Zrotation Yrotation Xrotation
				JOINT LeftToe
				{
					OFFSET 0.026358 -0.055791 0.119288
					CHANNELS 3 Zrotation Yrotation Xrotation
					End Site
					{
						OFFSET 0.000000 0.000000 0.000000
					}
				}
			}
		}
	}
	JOINT RightUpLeg
	{
		OFFSET -0.067670 -0.090522 -0.004320
		CHANNELS 3 Zrotation Yrotation Xrotation
		JOINT RightLeg
		{
			OFFSET -0.038290 -0.382569 -0.008850
			CHANNELS 3 Zrotation Yrotation Xrotation
			JOINT RightFoot
			{
				OFFSET 0.015774 -0.398415 -0.042312
				CHANNELS 3 Zrotation Yrotation Xrotation
				JOINT RightToe
				{
					OFFSET -0.025372 -0.048144 0.123348
					CHANNELS 3 Zrotation Yrotation Xrotation
					End Site
					{
						OFFSET 0.000000 0.000000 0.000000
					}
				}
			}
		}
	}
	JOINT Spine
	{
		OFFSET -0.002533 0.108963 -0.026696
		CHANNELS 3 Zrotation Yrotation Xrotation
		JOINT Spine1
		{
			OFFSET 0.005487 0.135180 0.001092
			CHANNELS 3 Zrotation Yrotation Xrotation
			JOINT Spine2
			{
				OFFSET 0.001457 0.052922 0.025425
				CHANNELS 3 Zrotation Yrotation Xrotation
				JOINT Neck
				{
					OFFSET -0.002778 0.213870 -0.042857
					CHANNELS 3 Zrotation Yrotation Xrotation
					JOINT Head
					{
						OFFSET 0.005152 0.064970 0.051349
						CHANNELS 3 Zrotation Yrotation Xrotation
						End Site
						{
							OFFSET 0.000000 0.000000 0.000000
						}
					}
				}
				JOINT LeftShoulder
				{
					OFFSET 0.078845 0.121749 -0.034090
					CHANNELS 3 Zrotation Yrotation Xrotation
					JOINT LeftArm
					{
						OFFSET 0.090977 0.030469 -0.008868
						CHANNELS 3 Zrotation Yrotation Xrotation
						JOINT LeftForeArm
						{
							OFFSET 0.259612 -0.012772 -0.027456
							CHANNELS 3 Zrotation Yrotation Xrotation
							JOINT LeftHand
							{
								OFFSET 0.249234 0.008986 -0.001171
								CHANNELS 3 Zrotation Yrotation Xrotation
								End Site
								{
									OFFSET 0.000000 0.000000 0.000000
								}
							}
						}
					}
				}
				JOINT RightShoulder
				{
					OFFSET -0.081759 0.118833 -0.038615
					CHANNELS 3 Zrotation Yrotation Xrotation
					JOINT RightArm
					{
						OFFSET -0.096012 0.032551 -0.009143
						CHANNELS 3 Zrotation Yrotation Xrotation
						JOINT RightForeArm
						{
							OFFSET -0.253742 -0.013329 -0.021401
							CHANNELS 3 Zrotation Yrotation Xrotation
							JOINT RightHand
							{
								OFFSET -0.255298 0.007772 -0.005559
								CHANNELS 3 Zrotation Yrotation Xrotation
								End Site
								{
									OFFSET 0.000000 0.000000 0.000000
								}
							}
						}
					}
				}
			}
		}
	}
}
MOTION
Frames: 15
Frame Time: 0.050000
0.000000 0.983062 0.000000 -8.723380 -24.474971 7.440242 5.478977 0.144596 -13.967990 2.622815 0.172569 21.763346 0.371660 3.171068 18.578048 0.000000 0.000000 0.000000 -3.533391 0.537034 -4.000759 10.481792 8.851017 77.302232 -0.713172 -6.581510 10.899862 0.000000 0.000000 0.000000 -8.381148 3.234324 28.952135 3.949204 2.314174 -49.464745 4.034154 11.064717 33.439655 8.783784 -4.666335 -23.585571 0.000000 0.000000 0.000000 -24.924611 -4.186758 2.616685 -42.363283 -10.926547 -4.843625 -0.291493 -40.712448 2.910338 0.000000 0.000000 0.000000 29.502292 3.547060 -0.351143 53.707899 15.256231 -1.780684 7.035003 49.722415 6.275401 0.000000 0.000000 0.000000 
-0.008246 0.989417 0.010264 -10.263268 -23.741977 6.862503 8.348250 0.556227 -11.907393 1.528128 0.466621 21.716518 -1.236525 0.352658 15.041493 0.000000 0.000000 0.000000 -3.736382 0.949433 -8.868380 12.311962 8.337312 86.115330 0.117906 -6.239551 16.065473 0.000000 0.000000 0.000000 -8.236215 3.117286 29.255452 7.995147 2.490746 -50.107642 1.926443 13.901566 34.473949 10.392897 -4.794746 -26.326178 0.000000 0.000000 0.000000 -25.723554 -4.052353 1.511056 -40.851182 -8.439952 -5.475765 -2.714353 -39.917742 3.375675 0.000000 0.000000 0.000000 32.730374 2.165044 -0.139078 51.107765 13.869584 -2.972027 10.177036 47.606141 7.669684 0.000000 0.000000 0.000000 
-0.017734 0.993102 0.020606 -10.549823 -21.552830 5.483224 8.572935 0.403830 -8.507483 1.607349 0.213758 20.939892 -0.372122 1.662652 13.312912 0.000000 0.000000 0.000000 -3.987913 0.934526 -8.927832 11.050720 7.746199 83.695752 -2.624030 -9.908340 11.277331 0.000000 0.000000 0.000000 -5.623467 1.975045 28.979283 3.598334 1.490740 -45.921960 3.031403 13.532002 29.953769 10.341126 -5.102792 -22.801334 0.000000 0.000000 0.000000 -27.199463 -5.546634 1.953052 -38.581699 -8.605599 -4.576719 -3.895389 -36.582157 3.173809 0.000000 0.000000 0.000000 32.742285 0.475382 -1.349354 49.070348 10.632614 -3.642947 12.467918 49.054040 8.724467 0.000000 0.000000 0.000000 
-0.028610 0.996833 0.030028 -10.628978 -22.377204 5.093617 9.560431 0.526442 -6.531192 2.123536 0.112062 21.232606 -1.546109 -0.258363 13.537855 0.000000 0.000000 0.000000 -5.612301 1.225113 -11.933798 7.331630 10.654315 78.055773 -1.338828 -7.572034 10.354046 0.000000 0.000000 0.000000 -5.739818 2.051629 28.977657 4.356519 1.987579 -49.051328 1.904462 13.119669 32.682183 12.491947 -6.580812 -24.283375 0.000000 0.000000 0.000000 -25.916690 -3.837807 1.324916 -40.113174 -7.657748 -5.429509 -4.344761 -35.597619 3.370596 0.000000 0.000000 0.000000 32.852703 -1.820465 -3.228316 48.751568 8.892831 -4.578715 17.779386 49.009229 11.133140 0.000000 0.000000 0.000000 
-0.041004 0.999327 0.038840 -10.112002 -21.331722 3.268220 10.747585 0.632253 -5.107558 2.092856 0.187102 23.664515 -2.601389 -2.786065 9.382456 0.000000 0.000000 0.000000 -7.556559 1.230030 -12.655374 3.171734 10.505715 66.465120 1.283883 -4.655630 14.071285 0.000000 0.000000 0.000000 -5.788677 1.800667 27.835945 3.096304 1.516668 -46.299854 1.959616 12.177061 30.503986 13.513022 -7.804539 -21.554567 0.000000 0.000000 0.000000 -25.595524 -2.905473 0.806163 -40.849832 -5.413226 -5.982635 -5.921091 -32.923073 3.552541 0.000000 0.000000 0.000000 32.396263 -3.057685 -4.369348 48.287531 5.298391 -5.563059 21.348175 50.179164 12.932892 0.000000 0.000000 0.000000 
-0.054910 1.000406 0.045639 -9.720483 -21.455798 2.347849 10.542320 0.591749 -3.078099 2.180594 0.128466 23.286873 -2.541883 -3.105378 7.823785 0.000000 0.000000 0.000000 -8.636438 1.221918 -12.831349 -1.085200 9.362345 52.147006 3.556654 -3.749104 19.038756 0.000000 0.000000 0.000000 -6.182528 1.757601 26.685905 3.947307 1.278279 -45.244624 1.712808 12.611721 31.136245 12.920389 -7.605993 -20.802060 0.000000 0.000000 0.000000 -26.163612 -2.218995 0.272465 -41.065888 -3.017334 -6.776241 -5.855466 -32.510707 3.467457 0.000000 0.000000 0.000000 31.652609 -3.059092 -4.108934 48.098620 3.417153 -6.395198 21.271582 52.453654 13.664176 0.000000 0.000000 0.000000 
-0.070813 0.997972 0.050970 -9.004768 -21.190396 1.773244 10.752693 0.597734 -1.828031 2.343548 0.005637 22.711560 -2.746487 -3.813588 6.584416 0.000000 0.000000 0.000000 -9.776201 1.122831 -11.512482 -3.708314 6.505799 37.029065 5.933647 -2.862047 23.570072 0.000000 0.000000 0.000000 -5.810156 1.532554 25.720053 3.866975 1.113071 -43.775152 1.530523 12.660497 30.174514 12.666545 -7.737528 -19.047624 0.000000 0.000000 0.000000 -25.913443 -0.738314 -0.727701 -42.202056 -0.389103 -7.646540 -7.516103 -31.668899 3.847655 0.000000 0.000000 0.000000 30.897859 -5.020375 -5.426102 47.317595 0.394620 -7.291789 22.686408 53.673041 14.645550 0.000000 0.000000 0.000000 
-0.089457 0.993542 0.054702 -7.958243 -20.661517 1.271744 11.231486 0.618341 -0.989956 2.436508 -0.135283 21.726153 -3.444636 -5.169514 6.318348 0.000000 0.000000 0.000000 -10.250735 1.041744 -10.146904 -4.676773 4.149136 25.633718 8.614870 0.725286 23.891300 0.000000 0.000000 0.000000 -4.388141 1.088878 25.579334 2.685304 1.317241 -45.746076 1.766824 12.055178 32.906006 11.341357 -7.041272 -19.217784 0.000000 0.000000 0.000000 -26.688112 -0.239334 -0.836842 -42.775117 0.467198 -8.408929 -7.509909 -31.569264 3.918585 0.000000 0.000000 0.000000 32.057274 -5.041666 -5.586894 45.547645 -0.456007 -7.682832 18.722072 53.751845 12.635192 0.000000 0.000000 0.000000 
-0.111935 0.985362 0.057926 -6.010758 -18.724285 0.474719 11.282616 0.550165 -0.721039 2.545365 -0.329871 21.499690 -4.208010 -6.409117 6.549946 0.000000 0.000000 0.000000 -10.877232 0.969512 -9.811517 -4.602334 3.174920 21.328271 9.895075 3.544730 23.085191 0.000000 0.000000 0.000000 -2.766378 0.525656 24.950635 0.247916 1.188215 -44.594512 1.754869 11.462113 31.079334 9.507579 -6.357972 -14.726235 0.000000 0.000000 0.000000 -26.493737 -0.517889 -0.961014 -43.426151 2.806747 -9.011057 -9.202713 -31.067189 4.227890 0.000000 0.000000 0.000000 32.919425 -5.176443 -5.671449 44.405903 -2.089881 -7.926425 13.409890 51.725713 9.394756 0.000000 0.000000 0.000000 
-0.139748 0.976246 0.060502 -4.141725 -16.316348 -1.376931 12.162675 0.548658 -0.763108 2.649305 -0.521362 22.585129 -5.279561 -8.443568 6.062274 0.000000 0.000000 0.000000 -11.042604 0.796906 -7.212266 -4.608468 3.084857 21.380849 9.683167 4.446410 21.836664 0.000000 0.000000 0.000000 -2.118497 0.285434 25.663155 -1.942377 1.243509 -44.635537 2.007973 10.751255 30.762548 8.567378 -5.678455 -13.925574 0.000000 0.000000 0.000000 -28.017146 -0.966922 -1.098676 -42.955266 3.313456 -9.003716 -7.110679 -30.113765 3.471586 0.000000 0.000000 0.000000 34.096902 -5.553340 -5.708779 43.810739 -3.258112 -8.342882 9.643560 48.157920 7.078757 0.000000 0.000000 0.000000 
-0.172706 0.969022 0.061560 -2.598045 -12.663232 -2.896653 12.735122 0.464839 -1.148825 3.233503 -0.991707 24.503507 -6.404327 -10.259737 6.241577 0.000000 0.000000 0.000000 -10.778391 0.615257 -4.579533 -3.895718 2.950248 23.028383 7.667601 4.233191 17.777285 0.000000 0.000000 0.000000 -1.037444 -0.155560 26.269847 -6.029613 1.515474 -46.075843 3.848873 7.712072 32.871465 6.568960 -4.318737 -13.996373 0.000000 0.000000 0.000000 -30.056225 -0.116165 -1.437179 -42.468358 1.765431 -8.755955 -5.288587 -29.243486 2.987410 0.000000 0.000000 0.000000 34.630828 -5.133683 -5.608167 44.894360 -1.936519 -8.326344 5.931420 43.676897 4.950219 0.000000 0.000000 0.000000 
-0.206745 0.965805 0.059782 -1.884420 -10.590495 -3.392077 13.121052 0.441091 -2.539144 5.238931 -1.901964 26.447505 -7.495578 -11.935075 6.681070 0.000000 0.000000 0.000000 -9.828946 0.514541 -3.943143 -2.287747 2.530806 24.528550 4.957941 2.997244 12.208346 0.000000 0.000000 0.000000 -0.313246 -0.439157 26.150967 -5.189903 1.416569 -45.093686 2.699028 8.863952 32.485423 5.810363 -3.348028 -13.709453 0.000000 0.000000 0.000000 -30.772351 0.754926 -3.034459 -43.621968 2.569715 -8.975361 -3.234156 -27.986203 2.295344 0.000000 0.000000 0.000000 35.570926 -4.858669 -4.448500 45.172558 0.234745 -7.966095 3.188575 39.223227 3.647916 0.000000 0.000000 0.000000 
-0.236933 0.969517 0.055747 -1.796861 -9.548095 -3.031472 14.543345 0.689411 -7.517452 5.191335 -2.136067 32.210812 -7.467512 -8.786267 12.071685 0.000000 0.000000 0.000000 -8.045210 0.442665 -3.443676 -1.542050 2.296997 25.183158 2.885275 0.108484 10.386934 0.000000 0.000000 0.000000 1.363958 -0.887367 26.473107 -6.268800 1.534991 -46.909960 3.065040 8.840566 34.657652 4.579351 -2.095112 -14.928967 0.000000 0.000000 0.000000 -30.853992 1.422575 -3.623617 -45.523329 2.565836 -9.561326 -0.665830 -26.554951 1.640085 0.000000 0.000000 0.000000 35.551457 -4.209979 -3.492734 45.301249 2.102916 -7.735598 2.059372 35.280866 2.945209 0.000000 0.000000 0.000000 
-0.260043 0.976419 0.050984 -1.079433 -8.297663 -3.224904 13.505111 0.777384 -13.472189 3.863334 -1.860683 39.957035 -4.001274 -1.995251 13.923161 0.000000 0.000000 0.000000 -7.099717 0.357450 -2.301184 -1.585497 2.213552 25.091999 2.607239 -0.588390 10.930247 0.000000 0.000000 0.000000 1.837949 -1.081616 27.780038 -6.509535 1.530368 -48.692314 4.148748 9.029016 35.624149 3.420166 -0.671685 -17.406017 0.000000 0.000000 0.000000 -31.940621 -0.049162 -3.144739 -45.785207 4.015894 -10.043106 -2.038379 -25.616445 1.834500 0.000000 0.000000 0.000000 33.934832 -4.677229 -3.102154 45.034135 2.797124 -7.712956 3.510506 34.286708 3.342906 0.000000 0.000000 0.000000 
-0.277179 0.989025 0.048227 -0.118892 -6.604292 -3.330813 11.317881 0.542752 -19.709028 1.436239 -0.964256 46.895375 -2.638070 0.371494 13.686820 0.000000 0.000000 0.000000 -6.834051 0.255213 -0.484872 -1.247551 1.809148 23.296121 2.371879 -1.110568 11.452164 0.000000 0.000000 0.000000 2.931358 -1.493301 29.415496 -10.554148 1.612472 -50.621232 6.053074 5.779836 36.758929 3.412397 -1.001147 -18.814678 0.000000 0.000000 0.000000 -33.299660 0.404210 -2.706716 -46.362240 2.787609 -10.074725 -2.972828 -24.268662 2.037372 0.000000 0.000000 0.000000 31.827771 -5.181384 -4.019381 45.970350 3.096394 -7.601085 3.097019 33.268615 3.037980 0.000000 0.000000 0.000000 
